# xmcd
#
# Track frame offsets: 
#        150
#        17173
#        34021
#        47449
#        64143
#        81566
#        99555
#        111989
#        133009
#        149362
#        165547
#        183080
#        209218
#        222166
#        234113
#        249229
#        267488
#        288033
#        303634
#        312439
#        338820
#
# Disc length: 4778 seconds
#
# Revision: 0
# Processed by: cddbd v1.5.2PL0 Copyright (c) Steve Scherf et al.
# Submitted via: ExactAudioCopy v0.99pb4
#
DISCID=3512a815
DTITLE=Various Artist - prevue promo 1120A-3
DYEAR=2003
DGENRE=pop
TTITLE0=Sarah Brightman - Free
TTITLE1=Seal - Waiting For You
TTITLE2=Donnas, The - Too Bad About Your Girl(Radio Edit)
TTITLE3=Madonna - Hollywood(Oakenfold Remix)
TTITLE4=Brian McKnight feat. Nelly - All Night(NO RAP)
TTITLE5=Brian McKnight feat. Nelly - All Night Long(Lyric - "Radio")
TTITLE6=Sasha - Dat Sexy Body
TTITLE7=BT - Simply Being Loved (Somnambulist - Edit Version)
TTITLE8=Demo - Bang(Radio Espanol)
TTITLE9=Demo - Bang(Radio Espanol Remix)
TTITLE10=Ric-A-Che - Coo Coo Chee(Lyric Content )
TTITLE11=Blue Rodeo - Homeward Bound Angel
TTITLE12=Flashlight Brown - Ready To Roll
TTITLE13=Gary Jules - Broke Window
TTITLE14=B.B. King - Exactly Like You
TTITLE15=Ben Kweller - Falling
TTITLE16=Allman Brothers Band - High Cost Of Low Living(Remix Edit)
TTITLE17=Nickelback - Someday
TTITLE18=Overseer - Horndog
TTITLE19=Metallica - Frantic
TTITLE20=Cave In - Inspire
EXTD=
EXTT0=
EXTT1=
EXTT2=
EXTT3=
EXTT4=
EXTT5=
EXTT6=
EXTT7=
EXTT8=
EXTT9=
EXTT10=
EXTT11=
EXTT12=
EXTT13=
EXTT14=
EXTT15=
EXTT16=
EXTT17=
EXTT18=
EXTT19=
EXTT20=
PLAYORDER=
